<svg width="30" height="30" viewBox="0 0 30 30" fill="none" xmlns="http://www.w3.org/2000/svg">
<g filter="url(#filter0_d_10_51)">
<path d="M24.8256 5.51906C24.7552 5.43482 24.6672 5.36705 24.5677 5.32056C24.4683 5.27407 24.3598 5.24998 24.25 5.25H9.12625L8.66781 2.73188C8.60502 2.38625 8.42292 2.07363 8.15325 1.84851C7.88359 1.62339 7.54347 1.50005 7.19219 1.5H5.5C5.30109 1.5 5.11032 1.57902 4.96967 1.71967C4.82902 1.86032 4.75 2.05109 4.75 2.25C4.75 2.44891 4.82902 2.63968 4.96967 2.78033C5.11032 2.92098 5.30109 3 5.5 3H7.1875L9.58375 16.1522C9.65434 16.5422 9.82671 16.9067 10.0834 17.2088C9.72911 17.5397 9.47336 17.9623 9.34455 18.4298C9.21575 18.8972 9.21892 19.3912 9.35371 19.8569C9.48851 20.3226 9.74966 20.7419 10.1082 21.0683C10.4668 21.3947 10.9087 21.6154 11.385 21.7059C11.8613 21.7965 12.3534 21.7533 12.8067 21.5813C13.26 21.4092 13.6568 21.115 13.9531 20.7312C14.2494 20.3474 14.4336 19.889 14.4853 19.407C14.537 18.9249 14.4541 18.4379 14.2459 18H18.5041C18.3363 18.3513 18.2495 18.7357 18.25 19.125C18.25 19.6442 18.404 20.1517 18.6924 20.5834C18.9808 21.0151 19.3908 21.3515 19.8705 21.5502C20.3501 21.7489 20.8779 21.8008 21.3871 21.6996C21.8963 21.5983 22.364 21.3483 22.7312 20.9812C23.0983 20.614 23.3483 20.1463 23.4496 19.6371C23.5508 19.1279 23.4989 18.6001 23.3002 18.1205C23.1015 17.6408 22.7651 17.2308 22.3334 16.9424C21.9017 16.654 21.3942 16.5 20.875 16.5H11.7972C11.6215 16.5 11.4515 16.4383 11.3167 16.3257C11.1818 16.2132 11.0908 16.0569 11.0594 15.8841L10.7622 14.25H21.6372C22.1641 14.2499 22.6743 14.0649 23.0788 13.7272C23.4833 13.3896 23.7564 12.9206 23.8506 12.4022L24.9906 6.13406C25.0099 6.02572 25.0051 5.91447 24.9766 5.80818C24.9481 5.7019 24.8966 5.60319 24.8256 5.51906ZM13 19.125C13 19.3475 12.934 19.565 12.8104 19.75C12.6868 19.935 12.5111 20.0792 12.3055 20.1644C12.1 20.2495 11.8738 20.2718 11.6555 20.2284C11.4373 20.185 11.2368 20.0778 11.0795 19.9205C10.9222 19.7632 10.815 19.5627 10.7716 19.3445C10.7282 19.1262 10.7505 18.9 10.8356 18.6945C10.9208 18.4889 11.065 18.3132 11.25 18.1896C11.435 18.066 11.6525 18 11.875 18C12.1734 18 12.4595 18.1185 12.6705 18.3295C12.8815 18.5405 13 18.8266 13 19.125ZM22 19.125C22 19.3475 21.934 19.565 21.8104 19.75C21.6868 19.935 21.5111 20.0792 21.3055 20.1644C21.1 20.2495 20.8738 20.2718 20.6555 20.2284C20.4373 20.185 20.2368 20.0778 20.0795 19.9205C19.9222 19.7632 19.815 19.5627 19.7716 19.3445C19.7282 19.1262 19.7505 18.9 19.8356 18.6945C19.9208 18.4889 20.065 18.3132 20.25 18.1896C20.435 18.066 20.6525 18 20.875 18C21.1734 18 21.4595 18.1185 21.6705 18.3295C21.8815 18.5405 22 18.8266 22 19.125ZM22.375 12.1341C22.3435 12.3074 22.2521 12.464 22.1166 12.5766C21.9812 12.6893 21.8105 12.7506 21.6344 12.75H10.4894L9.39906 6.75H23.3509L22.375 12.1341Z" fill="white"/>
</g>
<defs>
<filter id="filter0_d_10_51" x="0" y="0" width="32" height="32" filterUnits="userSpaceOnUse" color-interpolation-filters="sRGB">
<feFlood flood-opacity="0" result="BackgroundImageFix"/>
<feColorMatrix in="SourceAlpha" type="matrix" values="0 0 0 0 0 0 0 0 0 0 0 0 0 0 0 0 0 0 127 0" result="hardAlpha"/>
<feOffset dy="4"/>
<feGaussianBlur stdDeviation="2"/>
<feComposite in2="hardAlpha" operator="out"/>
<feColorMatrix type="matrix" values="0 0 0 0 0 0 0 0 0 0 0 0 0 0 0 0 0 0 0.25 0"/>
<feBlend mode="normal" in2="BackgroundImageFix" result="effect1_dropShadow_10_51"/>
<feBlend mode="normal" in="SourceGraphic" in2="effect1_dropShadow_10_51" result="shape"/>
</filter>
</defs>
</svg>
